<svg version="1.1" xmlns="http://www.w3.org/2000/svg" xmlns:xlink="http://www.w3.org/1999/xlink" width="128px" height="128px" viewBox="0,0,256,256"><g fill="none" fill-rule="nonzero" stroke="none" stroke-width="1" stroke-linecap="butt" stroke-linejoin="miter" stroke-miterlimit="10" stroke-dasharray="" stroke-dashoffset="0" font-family="none" font-weight="none" font-size="none" text-anchor="none" style="mix-blend-mode: normal"><g transform="scale(2,2)"><circle cx="84" cy="117" r="7" fill="#ffffff"></circle><circle cx="44" cy="117" r="7" fill="#ffffff"></circle><path d="M47,24h70.3c4.8,0 8.2,4.7 6.6,9.2l-13.7,41.2c-1.9,5.7 -7.3,9.6 -13.3,9.6h-59.9z" fill="none"></path><path d="M84,127c-5.5,0 -10,-4.5 -10,-10c0,-2.7 1,-5.2 2.9,-7.1c1.2,-1.2 3.1,-1.2 4.2,0c1.2,1.2 1.2,3.1 0,4.2c-0.8,0.8 -1.2,1.8 -1.2,2.8c0,2.2 1.8,4 4,4c2.2,0 4,-1.8 4,-4c0,-1.7 1.3,-3 3,-3c1.7,0 3,1.3 3,3c0.1,5.6 -4.4,10.1 -9.9,10.1z" fill="#000000"></path><path d="M91,110.5c-1.7,0 -3,-1.3 -3,-3c0,-3.6 -2.9,-6.5 -6.5,-6.5h-37.5c-5.5,0 -10,-4.5 -10,-10c0,-5.5 4.5,-10 10,-10h52.9c4.7,0 8.9,-3 10.4,-7.5l13.7,-41.2c0.4,-1.2 0.2,-2.5 -0.5,-3.6c-0.7,-1.1 -1.9,-1.7 -3.2,-1.7h-70.3c-1.7,0 -3,-1.3 -3,-3v-7h-7c-1.7,0 -3,-1.3 -3,-3c0,-1.7 1.3,-3 3,-3h10c1.7,0 3,1.3 3,3v7h67.3c3.3,0 6.2,1.5 8.1,4.2c1.9,2.6 2.4,5.9 1.4,9l-13.8,41.2c-2.3,7 -8.8,11.6 -16.1,11.6h-52.9c-2.2,0 -4,1.8 -4,4c0,2.2 1.8,4 4,4h37.5c6.9,0 12.5,5.6 12.5,12.5c0,1.6 -1.3,3 -3,3z" fill="#000000"></path><path d="M35,47h-20c-1.7,0 -3,-1.3 -3,-3c0,-1.7 1.3,-3 3,-3h20c1.7,0 3,1.3 3,3c0,1.7 -1.3,3 -3,3z" fill="#ffffff"></path><path d="M50,67h-30c-1.7,0 -3,-1.3 -3,-3c0,-1.7 1.3,-3 3,-3h30c1.7,0 3,1.3 3,3c0,1.7 -1.3,3 -3,3z" fill="#ffffff"></path><path d="M4,67c-0.2,0 -0.4,0 -0.6,-0.1c-0.2,0 -0.4,-0.1 -0.6,-0.2c-0.2,-0.1 -0.3,-0.2 -0.5,-0.3c-0.2,-0.1 -0.3,-0.2 -0.4,-0.4c-0.6,-0.4 -0.9,-1.2 -0.9,-2c0,-0.8 0.3,-1.6 0.9,-2.1c0.1,-0.1 0.3,-0.3 0.4,-0.4c0.2,-0.1 0.3,-0.2 0.5,-0.3c0.2,-0.1 0.4,-0.1 0.6,-0.2c0.4,-0.1 0.8,-0.1 1.2,0c0.2,0 0.4,0.1 0.6,0.2c0.2,0.1 0.4,0.2 0.5,0.3c0.2,0.1 0.3,0.2 0.4,0.4c0.6,0.5 0.9,1.3 0.9,2.1c0,0.8 -0.3,1.6 -0.9,2.1c-0.1,0.1 -0.3,0.3 -0.4,0.4c-0.2,0.1 -0.3,0.2 -0.5,0.3c-0.2,0.1 -0.4,0.1 -0.6,0.2c-0.2,0 -0.4,0 -0.6,0z" fill="#ffffff"></path><path d="M44,127c-5.5,0 -10,-4.5 -10,-10c0,-5.5 4.5,-10 10,-10c5.5,0 10,4.5 10,10c0,5.5 -4.5,10 -10,10zM44,113c-2.2,0 -4,1.8 -4,4c0,2.2 1.8,4 4,4c2.2,0 4,-1.8 4,-4c0,-2.2 -1.8,-4 -4,-4z" fill="#000000"></path></g></g></svg>