<svg xmlns="http://www.w3.org/2000/svg" fill="none" viewBox="0 0 100 100"><rect width="100" height="100" fill="#fff"/><g clip-path="url(#a)"><path d="M21 21V79.3719H79.3849V21H21ZM24.064 76.3206V24.0513H76.3252V76.3206H24.064Z" fill="#F68B1F"/><path d="m35.153 28.654h3.0554v2.9735h-3.064l0.0086-2.9735zm5.0217 43.072h9.1877v-2.9691h-9.1877v2.9691zm-8.0814-43.072h-3.064v20.395h9.1791v-2.9562h-6.1151v-17.439zm2.2256 22.625h-1.5298c-1.0155 0-1.9894 0.4034-2.7075 1.1215-0.718 0.7182-1.1214 1.6921-1.1214 2.7077v12.784c0 1.0155 0.4034 1.9895 1.1214 2.7076 0.7181 0.7182 1.692 1.1216 2.7075 1.1216h1.5298c1.0155 0 1.9895-0.4034 2.7075-1.1216 0.7181-0.7181 1.1215-1.6921 1.1215-2.7076v-2.913h-3.064v3.0253c0.0011 0.101-0.0178 0.2012-0.0558 0.2948s-0.0942 0.1786-0.1654 0.2502c-0.0712 0.0717-0.156 0.1284-0.2493 0.1669-0.0934 0.0385-0.1935 0.058-0.2945 0.0574h-1.5298c-0.101 6e-4 -0.2011-0.0189-0.2944-0.0574-0.0934-0.0385-0.1781-0.0952-0.2493-0.1669-0.0712-0.0716-0.1274-0.1566-0.1654-0.2502s-0.057-0.1938-0.0558-0.2948v-12.966c0.0022-0.2026 0.0834-0.3964 0.2262-0.54 0.1429-0.1437 0.3361-0.226 0.5387-0.2293h1.5298c0.2026 0.0033 0.3959 0.0856 0.5387 0.2293 0.1429 0.1436 0.224 0.3374 0.2263 0.54v2.3986h3.064v-2.3079c0.0028-0.5047-0.0941-1.0049-0.2852-1.472-0.1912-0.4671-0.4728-0.8918-0.8286-1.2496-0.3558-0.3579-0.7789-0.6419-1.2449-0.8357-0.4659-0.1938-0.9656-0.2935-1.4703-0.2935zm0.8255-8.1771h3.064v-8.5055h-3.064v8.5055zm19.235-3.4575h3.064v9.4088h3.0597v-20.4h-3.0597v7.9826h-3.064v-7.9826h-3.064v20.395h3.064v-9.4045zm-5.026 15.472v7.5417c0 1.0156-0.4034 1.9896-1.1215 2.7077-0.718 0.7181-1.6919 1.1215-2.7074 1.1215h-1.5299c-1.0155 0-1.9894-0.4034-2.7075-1.1215-0.718-0.7181-1.1214-1.6921-1.1214-2.7077v-7.5461c0-0.5028 0.099-1.0008 0.2914-1.4653 0.1925-0.4646 0.4745-0.8868 0.83-1.2423 0.3556-0.3556 0.7777-0.6377 1.2422-0.8301 0.4646-0.1924 0.9625-0.2915 1.4653-0.2915h1.5601c1.0118 0.0057 1.9801 0.4117 2.6935 1.1292s1.1139 1.6882 1.1138 2.7l-0.0086 0.0044zm-3.064-0.0908c-0.0022-0.2026-0.0834-0.3963-0.2263-0.54-0.1428-0.1437-0.3361-0.2259-0.5386-0.2293h-1.5299c-0.2033 0.0022-0.3977 0.084-0.5414 0.2278-0.1438 0.1438-0.2256 0.3382-0.2278 0.5415v7.7233c-0.0012 0.1013 0.0179 0.2019 0.0562 0.2957 0.0382 0.0939 0.0948 0.1792 0.1665 0.2508 0.0717 0.0717 0.1569 0.1283 0.2508 0.1666 0.0938 0.0382 0.1944 0.0573 0.2957 0.0562h1.5601c0.101 6e-4 0.2011-0.019 0.2944-0.0575 0.0934-0.0385 0.1781-0.0952 0.2493-0.1668s0.1275-0.1567 0.1654-0.2503c0.038-0.0936 0.057-0.1937 0.0558-0.2947l-0.0302-7.7233zm15.852-0.5835h3.4573v11.669h3.0597v-11.669h3.4314v-2.9691h-9.9397l-0.0087 2.9691zm0-25.785v2.9692h3.4573v11.57h3.0597v-11.574h3.4314v-2.9692l-9.9484 0.0043zm0 20.395h9.9397v-2.9605h-9.9397v2.9605zm0 22.677h9.9397v-2.9691h-9.9397v2.9691zm-16.547-43.167h-1.5903c-1.0155 0-1.9894 0.4034-2.7075 1.1215s-1.1215 1.6921-1.1215 2.7077v12.918c0 0.5029 0.0991 1.0008 0.2915 1.4654s0.4744 0.8867 0.83 1.2423c0.3555 0.3556 0.7776 0.6376 1.2422 0.8301 0.4645 0.1924 0.9624 0.2914 1.4653 0.2914h1.5903c1.0155 0 1.9894-0.4034 2.7075-1.1215 0.718-0.7181 1.1215-1.6921 1.1215-2.7077v-6.7422h-4.6544v2.9692h1.5903v3.8897c0.0012 0.1008-0.0178 0.2008-0.0558 0.2941-0.0381 0.0933-0.0944 0.1781-0.1656 0.2494-0.0713 0.0713-0.1561 0.1276-0.2494 0.1656s-0.1933 0.057-0.2941 0.0559h-1.5903c-0.1008 0.0011-0.2008-0.0179-0.2941-0.0559-0.0934-0.038-0.1781-0.0943-0.2494-0.1656s-0.1276-0.1561-0.1656-0.2494-0.057-0.1933-0.0559-0.2941v-13.13c0.0023-0.2022 0.0836-0.3955 0.2266-0.5384 0.1429-0.143 0.3362-0.2243 0.5384-0.2266h1.5903c0.2018 0.0034 0.3945 0.085 0.5372 0.2278 0.1427 0.1427 0.2244 0.3354 0.2277 0.5372v2.9173h3.0857v-2.8222c0-0.5047-0.0998-1.0044-0.2936-1.4704-0.1937-0.466-0.4777-0.8891-0.8355-1.245-0.3579-0.3558-0.7825-0.6374-1.2496-0.8286-0.467-0.1912-0.9673-0.2881-1.4719-0.2852zm13.237 32.38-3.8592-2.161c-0.1648-0.0915-0.3026-0.2247-0.3996-0.3863-0.0971-0.1615-0.1501-0.3458-0.1536-0.5342v-2.8568c-0.0011-0.101 0.0178-0.2012 0.0558-0.2948 0.038-0.0935 0.0942-0.1786 0.1654-0.2502s0.156-0.1283 0.2493-0.1669c0.0934-0.0385 0.1935-0.058 0.2944-0.0574h1.504c0.1009-6e-4 0.201 0.0189 0.2944 0.0574 0.0933 0.0386 0.1781 0.0953 0.2493 0.1669s0.1274 0.1567 0.1654 0.2502c0.038 0.0936 0.0569 0.1938 0.0558 0.2948v2.3987h3.0597v-2.308c0-1.0148-0.4028-1.9881-1.12-2.7061-0.7171-0.718-1.6899-1.1219-2.7046-1.1231h-1.504c-1.0147 0.0012-1.9875 0.4051-2.7046 1.1231-0.7172 0.718-1.12 1.6913-1.12 2.7061v3.0254c-7e-4 0.6169 0.1636 1.2227 0.4759 1.7547 0.3124 0.532 0.7613 0.9707 1.3003 1.2706l3.8895 2.2042c0.1574 0.0968 0.2876 0.2322 0.3784 0.3932 0.0907 0.1611 0.1389 0.3425 0.1401 0.5274v3.7082c0.0012 0.101-0.0178 0.2012-0.0558 0.2948-0.0379 0.0935-0.0942 0.1786-0.1654 0.2502s-0.1559 0.1283-0.2493 0.1668c-0.0933 0.0386-0.1934 0.0581-0.2944 0.0575h-1.6249c-0.101 6e-4 -0.2011-0.0189-0.2944-0.0575-0.0934-0.0385-0.1781-0.0952-0.2493-0.1668s-0.1274-0.1567-0.1654-0.2502c-0.038-0.0936-0.057-0.1938-0.0558-0.2948v-3.0253h-3.064v2.9173c0 0.5028 0.099 1.0008 0.2914 1.4653 0.1924 0.4646 0.4745 0.8867 0.83 1.2423 0.3556 0.3556 0.7777 0.6377 1.2422 0.8301 0.4646 0.1924 0.9625 0.2915 1.4653 0.2915h1.6379c0.5028 0 1.0007-0.0991 1.4653-0.2915 0.4645-0.1924 0.8866-0.4745 1.2422-0.8301 0.3555-0.3556 0.6375-0.7777 0.83-1.2423 0.1924-0.4645 0.2914-0.9625 0.2914-1.4653v-3.8898c0.0018-0.6204-0.1634-1.2298-0.4782-1.7644-0.3148-0.5345-0.7676-0.9746-1.3109-1.2739z" fill="#333132"/></g><defs><clipPath id="a"><rect transform="translate(21 21)" width="58.385" height="58.385" fill="#fff"/></clipPath></defs></svg>